<?xml version="1.0" encoding="utf-8"?>
<!-- Generator: Adobe Illustrator 15.0.2, SVG Export Plug-In  -->
<!DOCTYPE svg PUBLIC "-//W3C//DTD SVG 1.1//EN" "http://www.w3.org/Graphics/SVG/1.1/DTD/svg11.dtd" [
	<!ENTITY ns_flows "http://ns.adobe.com/Flows/1.0/">
]>
<svg version="1.1"
	 xmlns="http://www.w3.org/2000/svg" xmlns:xlink="http://www.w3.org/1999/xlink" xmlns:a="http://ns.adobe.com/AdobeSVGViewerExtensions/3.0/"
	 x="0px" y="0px" viewBox="-4.274 -2.841 179 238"
	 overflow="visible" enable-background="new -4.274 -2.841 179 238" xml:space="preserve">
<defs>
</defs>
<linearGradient id="SVGID_1_" gradientUnits="userSpaceOnUse" x1="9.0327" y1="226.4644" x2="9.0327" y2="203.6597">
	<stop  offset="0" style="stop-color:#424243"/>
	<stop  offset="1" style="stop-color:#808183"/>
</linearGradient>
<path fill="url(#SVGID_1_)" d="M14.983,213.199c0,3.555,0.07,6.327,0.35,9.372l-0.071,0.033c-1.112-2.334-2.47-4.735-4.208-7.405
	L3.533,203.66H0.228v22.805h2.853v-9.749c0-3.784-0.069-6.528-0.243-9.403l0.104-0.034c1.184,2.469,2.749,5.076,4.385,7.612
	l7.448,11.574h3.062V203.66h-2.854V213.199z"/>
<linearGradient id="SVGID_2_" gradientUnits="userSpaceOnUse" x1="29.7349" y1="226.4644" x2="29.7349" y2="203.6597">
	<stop  offset="0" style="stop-color:#424243"/>
	<stop  offset="1" style="stop-color:#808183"/>
</linearGradient>
<polygon fill="url(#SVGID_2_)" points="26.168,215.772 35.286,215.772 35.286,213.333 26.168,213.333 26.168,206.128 
	35.807,206.128 35.807,203.66 23.141,203.66 23.141,226.464 36.329,226.464 36.329,223.993 26.168,223.993 "/>
<linearGradient id="SVGID_3_" gradientUnits="userSpaceOnUse" x1="52.7812" y1="226.4644" x2="52.7812" y2="203.6597">
	<stop  offset="0" style="stop-color:#424243"/>
	<stop  offset="1" style="stop-color:#808183"/>
</linearGradient>
<path fill="url(#SVGID_3_)" d="M60.908,215.162c-0.73,2.842-1.392,5.38-1.879,7.882h-0.069c-0.349-2.398-0.974-5.108-1.635-7.816
	L54.47,203.66h-3.167l-3.132,11.502c-0.801,2.942-1.529,5.649-1.915,7.915h-0.068c-0.417-2.198-1.045-5.039-1.74-7.878
	l-2.783-11.539H38.46l5.953,22.805h3.165l3.341-11.878c0.871-2.942,1.391-5.177,1.81-7.443h0.07c0.312,2.302,0.799,4.53,1.529,7.443
	l2.959,11.878h3.167l6.646-22.805h-3.096L60.908,215.162z"/>
<linearGradient id="SVGID_4_" gradientUnits="userSpaceOnUse" x1="75.959" y1="226.7974" x2="75.959" y2="203.2876">
	<stop  offset="0" style="stop-color:#424243"/>
	<stop  offset="1" style="stop-color:#808183"/>
</linearGradient>
<path fill="url(#SVGID_4_)" d="M77.071,213.538c-3.236-1.22-4.662-2.266-4.662-4.399c0-1.557,1.219-3.414,4.42-3.414
	c2.122,0,3.688,0.676,4.454,1.079l0.834-2.398c-1.043-0.579-2.784-1.117-5.185-1.117c-4.559,0-7.586,2.638-7.586,6.191
	c0,3.213,2.366,5.143,6.195,6.46c3.167,1.187,4.418,2.4,4.418,4.535c0,2.3-1.809,3.889-4.906,3.889c-2.089,0-4.072-0.676-5.43-1.488
	l-0.765,2.472c1.251,0.808,3.723,1.451,5.983,1.451c5.536,0,8.215-3.042,8.215-6.56C83.058,216.884,81.039,215.026,77.071,213.538z"
	/>
<linearGradient id="SVGID_5_" gradientUnits="userSpaceOnUse" x1="102.1064" y1="226.7974" x2="102.1064" y2="203.2876">
	<stop  offset="0" style="stop-color:#424243"/>
	<stop  offset="1" style="stop-color:#808183"/>
</linearGradient>
<path fill="url(#SVGID_5_)" d="M105.555,205.756c1.945,0,3.581,0.405,4.73,0.948l0.73-2.402c-0.8-0.41-2.641-1.015-5.566-1.015
	c-7.275,0-12.252,4.837-12.252,11.976c0,7.479,4.977,11.534,11.592,11.534c2.852,0,5.08-0.539,6.192-1.079l-0.625-2.335
	c-1.22,0.573-3.098,0.945-4.944,0.945c-5.708,0-9.012-3.583-9.012-9.167C96.399,209.175,100.054,205.756,105.555,205.756z"/>
<linearGradient id="SVGID_6_" gradientUnits="userSpaceOnUse" x1="123.3828" y1="226.8345" x2="123.3828" y2="203.2876">
	<stop  offset="0" style="stop-color:#424243"/>
	<stop  offset="1" style="stop-color:#808183"/>
</linearGradient>
<path fill="url(#SVGID_6_)" d="M123.556,203.288c-6.264,0-10.892,4.734-10.892,11.976c0,6.904,4.351,11.571,10.544,11.571
	c5.984,0,10.894-4.161,10.894-12.008C134.102,208.059,129.962,203.288,123.556,203.288z M123.383,224.429
	c-4.768,0-7.481-4.36-7.481-9.23c0-5.012,2.503-9.51,7.517-9.51c5.044,0,7.481,4.734,7.481,9.269
	C130.899,220.134,128.184,224.429,123.383,224.429z"/>
<linearGradient id="SVGID_7_" gradientUnits="userSpaceOnUse" x1="145.6841" y1="226.4644" x2="145.6841" y2="203.4917">
	<stop  offset="0" style="stop-color:#424243"/>
	<stop  offset="1" style="stop-color:#808183"/>
</linearGradient>
<path fill="url(#SVGID_7_)" d="M148.068,215.599v-0.101c2.472-0.81,4.421-2.807,4.421-5.82c0-1.757-0.662-3.313-1.844-4.328
	c-1.464-1.287-3.551-1.858-6.787-1.858c-2.088,0-4.28,0.168-5.813,0.473v22.5h3.029v-9.88h2.853c2.75,0.099,4.002,1.284,4.701,4.427
	c0.659,2.847,1.182,4.806,1.562,5.453h3.133c-0.487-0.882-1.044-3.081-1.811-6.262C150.958,217.834,149.877,216.212,148.068,215.599
	z M144.171,214.35h-3.097v-8.324c0.487-0.134,1.528-0.27,2.993-0.27c3.201,0.035,5.391,1.318,5.391,4.262
	C149.458,212.625,147.406,214.35,144.171,214.35z"/>
<linearGradient id="SVGID_8_" gradientUnits="userSpaceOnUse" x1="164.002" y1="226.4644" x2="164.002" y2="203.4917">
	<stop  offset="0" style="stop-color:#424243"/>
	<stop  offset="1" style="stop-color:#808183"/>
</linearGradient>
<path fill="url(#SVGID_8_)" d="M169.17,205.384c-1.395-1.221-3.588-1.893-6.578-1.893c-2.436,0-4.352,0.203-5.812,0.437v22.536
	h3.024v-9.14c0.698,0.172,1.531,0.207,2.438,0.207c2.955,0,5.567-0.849,7.166-2.506c1.186-1.184,1.813-2.809,1.813-4.869
	C171.223,208.125,170.456,206.465,169.17,205.384z M162.313,215.162c-1.009,0-1.845-0.067-2.508-0.238v-8.862
	c0.522-0.136,1.531-0.236,2.854-0.236c3.341,0,5.535,1.453,5.535,4.463C168.195,213.437,165.966,215.162,162.313,215.162z"/>
<linearGradient id="SVGID_9_" gradientUnits="userSpaceOnUse" x1="14.875" y1="197.4038" x2="14.875" y2="147.2954">
	<stop  offset="0" style="stop-color:#424243"/>
	<stop  offset="1" style="stop-color:#808183"/>
</linearGradient>
<polygon fill="url(#SVGID_9_)" points="29.365,191.978 7.04,191.978 7.04,173.912 27.07,173.912 27.07,168.562 7.04,168.562 
	7.04,152.729 28.22,152.729 28.22,147.295 0.385,147.295 0.385,197.404 29.365,197.404 "/>
<linearGradient id="SVGID_10_" gradientUnits="userSpaceOnUse" x1="51.9507" y1="198.1548" x2="51.9507" y2="146.48">
	<stop  offset="0" style="stop-color:#424243"/>
	<stop  offset="1" style="stop-color:#808183"/>
</linearGradient>
<path fill="url(#SVGID_10_)" d="M71.453,195.772l-1.375-5.132c-2.675,1.266-6.807,2.081-10.86,2.081
	c-12.542,0-19.811-7.883-19.811-20.142c0-13.165,8.032-20.669,20.116-20.669c4.285,0,7.879,0.888,10.399,2.081l1.605-5.277
	c-1.76-0.896-5.81-2.234-12.233-2.234c-15.983,0-26.92,10.635-26.92,26.319c0,16.434,10.937,25.355,25.465,25.355
	C64.113,198.155,69.007,196.957,71.453,195.772z"/>
<linearGradient id="SVGID_11_" gradientUnits="userSpaceOnUse" x1="98.7021" y1="198.2261" x2="98.7021" y2="146.48">
	<stop  offset="0" style="stop-color:#424243"/>
	<stop  offset="1" style="stop-color:#808183"/>
</linearGradient>
<path fill="url(#SVGID_11_)" d="M122.256,171.832c0-14.868-9.102-25.352-23.177-25.352c-13.76,0-23.931,10.41-23.931,26.319
	c0,15.161,9.558,25.427,23.173,25.427C111.47,198.226,122.256,189.082,122.256,171.832z M82.26,172.649
	c0-11,5.504-20.892,16.517-20.892c11.09,0,16.443,10.411,16.443,20.369c0,11.374-5.965,20.818-16.516,20.818
	C88.224,192.945,82.26,183.356,82.26,172.649z"/>
<linearGradient id="SVGID_12_" gradientUnits="userSpaceOnUse" x1="150.272" y1="197.4038" x2="150.272" y2="147.2954">
	<stop  offset="0" style="stop-color:#424243"/>
	<stop  offset="1" style="stop-color:#808183"/>
</linearGradient>
<path fill="url(#SVGID_12_)" d="M137.197,175.996c0-8.328-0.152-14.347-0.533-20.665l0.229-0.075c2.6,5.426,6.04,11.15,9.638,16.727
	l16.362,25.422h6.725v-50.108h-6.265v20.972c0,7.802,0.151,13.9,0.771,20.593l-0.16,0.072c-2.445-5.124-5.429-10.407-9.255-16.283
	l-16.514-25.354h-7.267v50.108h6.27V175.996z"/>
<linearGradient id="SVGID_13_" gradientUnits="userSpaceOnUse" x1="108.8066" y1="95.0376" x2="159.9712" y2="95.0376">
	<stop  offset="0" style="stop-color:#292660"/>
	<stop  offset="1" style="stop-color:#323B8C"/>
</linearGradient>
<polygon fill="url(#SVGID_13_)" points="151.31,100.686 108.807,75.421 114.483,89.234 159.971,114.655 "/>
<linearGradient id="SVGID_14_" gradientUnits="userSpaceOnUse" x1="115.2095" y1="50.5151" x2="161.8179" y2="50.5151">
	<stop  offset="0" style="stop-color:#292660"/>
	<stop  offset="1" style="stop-color:#323B8C"/>
</linearGradient>
<path fill="url(#SVGID_14_)" d="M160.7,63.629l0.066-36.81L115.277,1.395l-0.066,36.818c-0.026,13.717,0.193,24.411,1.117,36.005
	l45.49,25.418C160.895,88.043,160.673,77.349,160.7,63.629z"/>
<linearGradient id="SVGID_15_" gradientUnits="userSpaceOnUse" x1="115.2773" y1="13.4097" x2="170.4395" y2="13.4097">
	<stop  offset="0" style="stop-color:#323B8C"/>
	<stop  offset="1" style="stop-color:#4674B8"/>
</linearGradient>
<polygon fill="url(#SVGID_15_)" points="160.766,26.819 115.277,1.395 124.949,0 170.439,25.42 "/>
<linearGradient id="SVGID_16_" gradientUnits="userSpaceOnUse" x1="71.8379" y1="20.5146" x2="128.5171" y2="20.5146">
	<stop  offset="0" style="stop-color:#323B8C"/>
	<stop  offset="1" style="stop-color:#4674B8"/>
</linearGradient>
<polygon fill="url(#SVGID_16_)" points="117.327,34.033 71.838,8.613 83.029,6.997 128.517,32.417 "/>
<linearGradient id="SVGID_17_" gradientUnits="userSpaceOnUse" x1="76.7676" y1="82.4546" x2="122.4146" y2="82.4546">
	<stop  offset="0" style="stop-color:#262424"/>
	<stop  offset="1" style="stop-color:#58595B"/>
</linearGradient>
<polygon fill="url(#SVGID_17_)" points="122.254,139.222 76.768,113.802 76.925,25.688 122.415,51.108 "/>
<linearGradient id="SVGID_18_" gradientUnits="userSpaceOnUse" x1="66.3506" y1="65.1987" x2="149.7451" y2="65.1987">
	<stop  offset="0" style="stop-color:#262424"/>
	<stop  offset="1" style="stop-color:#58595B"/>
</linearGradient>
<path fill="url(#SVGID_18_)" d="M145.716,93.488c0.342-0.796,0.662-1.606,0.96-2.437c0.019-0.049,0.041-0.096,0.059-0.145
	c0.035-0.099,0.065-0.206,0.101-0.306c0.171-0.49,0.333-0.984,0.49-1.484c0.05-0.166,0.104-0.326,0.153-0.494
	c0.391-1.295,0.729-2.62,1.02-3.976c0.041-0.192,0.08-0.389,0.119-0.584c0.102-0.504,0.198-1.013,0.286-1.525
	c0.036-0.198,0.071-0.396,0.103-0.598c0.111-0.688,0.213-1.377,0.3-2.077c0.003-0.017,0.004-0.039,0.006-0.057
	c0.083-0.678,0.15-1.362,0.209-2.05c0.02-0.216,0.034-0.433,0.05-0.649c0.039-0.521,0.071-1.042,0.098-1.567
	c0.009-0.214,0.021-0.43,0.029-0.644c0.028-0.716,0.047-1.438,0.047-2.161c0.022-12.167-4.208-24.093-12.907-28.954
	c-15.164-8.473-30.325-16.946-45.488-25.42c8.698,4.861,12.927,16.789,12.906,28.955c-0.001,0.726-0.02,1.447-0.047,2.166
	c-0.006,0.211-0.018,0.42-0.029,0.629c-0.026,0.534-0.059,1.065-0.099,1.594c-0.016,0.208-0.03,0.416-0.047,0.622
	c-0.122,1.424-0.296,2.83-0.52,4.212c-0.029,0.185-0.063,0.368-0.094,0.551c-0.092,0.531-0.19,1.06-0.297,1.583
	c-0.037,0.179-0.071,0.361-0.111,0.54c-0.291,1.358-0.631,2.69-1.021,3.989c-0.05,0.168-0.103,0.334-0.155,0.5
	c-0.154,0.491-0.314,0.979-0.482,1.461c-0.056,0.159-0.111,0.319-0.167,0.477c-0.301,0.836-0.625,1.652-0.969,2.454
	c-0.055,0.125-0.11,0.251-0.166,0.377c-0.344,0.78-0.708,1.545-1.092,2.29c-0.093,0.182-0.191,0.36-0.287,0.54
	c-0.222,0.412-0.449,0.82-0.685,1.22c-0.085,0.149-0.171,0.298-0.26,0.445c-0.335,0.556-0.681,1.1-1.042,1.63
	c-0.004,0.006-0.01,0.014-0.013,0.019c-0.656,0.961-1.355,1.868-2.091,2.737c-0.08,0.096-0.162,0.189-0.244,0.282
	c-0.674,0.774-1.379,1.51-2.121,2.199c-0.057,0.053-0.113,0.108-0.169,0.158c-0.314,0.29-0.636,0.566-0.961,0.838
	c-0.103,0.087-0.203,0.178-0.308,0.262c-0.407,0.331-0.822,0.648-1.247,0.95c-0.089,0.064-0.182,0.122-0.271,0.185
	c-0.431,0.299-0.87,0.583-1.317,0.855c-0.149,0.091-0.299,0.18-0.452,0.268c-0.482,0.279-0.971,0.544-1.471,0.789
	c-0.065,0.034-0.126,0.068-0.189,0.101c-0.492,0.236-0.996,0.451-1.504,0.655c-0.17,0.067-0.345,0.128-0.517,0.194
	c-0.36,0.132-0.725,0.262-1.094,0.381c-0.197,0.061-0.394,0.12-0.591,0.178c-0.376,0.11-0.754,0.209-1.138,0.301
	c-0.181,0.044-0.362,0.091-0.546,0.131c-0.564,0.123-1.134,0.23-1.717,0.314c-0.68,0.099-1.345,0.159-2.001,0.195
	c-0.2,0.012-0.396,0.013-0.597,0.021c-0.451,0.014-0.899,0.014-1.338,0c-0.225-0.008-0.449-0.017-0.669-0.035
	c-0.421-0.027-0.834-0.068-1.242-0.124c-0.203-0.022-0.406-0.045-0.605-0.078c-0.569-0.093-1.129-0.206-1.675-0.347
	c-0.046-0.012-0.092-0.026-0.14-0.039c-0.534-0.145-1.056-0.313-1.567-0.502c-0.157-0.058-0.312-0.125-0.467-0.186
	c-0.402-0.163-0.801-0.337-1.188-0.525c-0.297-0.145-0.596-0.287-0.885-0.445l45.492,25.418c0.224,0.124,0.452,0.244,0.683,0.358
	c0.069,0.035,0.144,0.058,0.212,0.093c0.379,0.183,0.767,0.355,1.16,0.513c0.162,0.066,0.323,0.136,0.487,0.197
	c0.501,0.184,1.013,0.35,1.535,0.489c0.037,0.012,0.072,0.026,0.11,0.037c0.022,0.006,0.047,0.008,0.068,0.015
	c0.548,0.14,1.11,0.255,1.682,0.348c0.178,0.027,0.36,0.045,0.539,0.068c0.431,0.058,0.867,0.102,1.313,0.131
	c0.208,0.013,0.417,0.024,0.628,0.032c0.448,0.015,0.904,0.015,1.364,0c0.197-0.006,0.392-0.007,0.592-0.02
	c0.655-0.039,1.319-0.096,2-0.195c0.579-0.083,1.148-0.19,1.71-0.312c0.192-0.042,0.38-0.091,0.569-0.137
	c0.372-0.09,0.739-0.185,1.102-0.291c0.211-0.062,0.421-0.125,0.628-0.191c0.347-0.113,0.69-0.233,1.031-0.359
	c0.193-0.072,0.388-0.139,0.579-0.217c0.448-0.178,0.889-0.37,1.321-0.574c0.066-0.032,0.136-0.058,0.201-0.088
	c0.081-0.04,0.155-0.085,0.233-0.126c0.469-0.231,0.929-0.48,1.381-0.742c0.158-0.09,0.312-0.183,0.467-0.276
	c0.446-0.272,0.884-0.556,1.312-0.855c0.067-0.044,0.14-0.085,0.206-0.132c0.022-0.016,0.039-0.032,0.061-0.045
	c0.425-0.304,0.839-0.622,1.247-0.951c0.117-0.095,0.229-0.196,0.344-0.292c0.304-0.255,0.605-0.514,0.898-0.782
	c0.04-0.037,0.083-0.069,0.122-0.105c0.099-0.091,0.193-0.192,0.292-0.287c0.237-0.224,0.473-0.452,0.703-0.685
	c0.159-0.164,0.317-0.333,0.473-0.5c0.211-0.224,0.42-0.451,0.625-0.684c0.08-0.093,0.163-0.175,0.243-0.268
	c0.034-0.039,0.062-0.086,0.096-0.125c0.716-0.842,1.399-1.732,2.041-2.664c0.021-0.032,0.048-0.058,0.068-0.091
	c0.016-0.02,0.028-0.046,0.043-0.067c0.344-0.506,0.673-1.027,0.994-1.558c0.091-0.15,0.179-0.306,0.269-0.46
	c0.256-0.434,0.502-0.878,0.742-1.328c0.047-0.086,0.099-0.167,0.144-0.257c0.022-0.041,0.039-0.085,0.062-0.126
	c0.391-0.753,0.76-1.527,1.108-2.319C145.594,93.772,145.655,93.631,145.716,93.488z"/>
<linearGradient id="SVGID_19_" gradientUnits="userSpaceOnUse" x1="99.4395" y1="61.3413" x2="146.9131" y2="61.3413">
	<stop  offset="0" style="stop-color:#292660"/>
	<stop  offset="1" style="stop-color:#323B8C"/>
</linearGradient>
<polygon fill="url(#SVGID_19_)" points="146.913,93.157 108.282,29.526 99.439,64.466 "/>
<linearGradient id="SVGID_20_" gradientUnits="userSpaceOnUse" x1="42.4668" y1="62.3203" x2="144.2944" y2="62.3203">
	<stop  offset="0" style="stop-color:#262424"/>
	<stop  offset="1" style="stop-color:#58595B"/>
</linearGradient>
<path fill="url(#SVGID_20_)" d="M88.061,79.253c0.032-0.588,0.064-1.173,0.111-1.754c0.027-0.338,0.062-0.672,0.095-1.008
	c0.049-0.522,0.101-1.042,0.162-1.558c0.042-0.351,0.091-0.698,0.139-1.045c0.067-0.495,0.139-0.985,0.216-1.474
	c0.058-0.349,0.118-0.696,0.179-1.041c0.086-0.48,0.178-0.959,0.274-1.432c0.068-0.339,0.138-0.677,0.212-1.011
	c0.107-0.478,0.219-0.952,0.336-1.422c0.079-0.319,0.156-0.638,0.241-0.953c0.131-0.495,0.271-0.983,0.415-1.468
	c0.082-0.281,0.162-0.563,0.248-0.84c0.171-0.552,0.355-1.094,0.541-1.634c0.068-0.196,0.131-0.397,0.201-0.593
	c0.37-1.037,0.775-2.046,1.2-3.039c0.088-0.207,0.177-0.412,0.267-0.616c0.422-0.952,0.866-1.887,1.336-2.798
	c0.116-0.221,0.237-0.438,0.354-0.657c0.299-0.557,0.606-1.106,0.923-1.647c0.13-0.223,0.261-0.446,0.396-0.666
	c0.399-0.657,0.81-1.302,1.236-1.932c0.047-0.07,0.091-0.144,0.14-0.213c0.443-0.65,0.903-1.281,1.374-1.899
	c0.135-0.179,0.278-0.352,0.417-0.528c0.343-0.439,0.693-0.874,1.05-1.296c0.175-0.206,0.352-0.41,0.53-0.612
	c0.339-0.387,0.684-0.766,1.034-1.137c0.185-0.197,0.368-0.394,0.556-0.587c0.402-0.412,0.814-0.812,1.23-1.205
	c0.135-0.126,0.265-0.26,0.401-0.386c0.585-0.537,1.183-1.052,1.793-1.551c0.158-0.13,0.322-0.255,0.482-0.383
	c0.481-0.385,0.973-0.757,1.47-1.117c0.165-0.119,0.329-0.24,0.497-0.356c0.795-0.558,1.608-1.087,2.439-1.585
	c0.144-0.085,0.29-0.167,0.433-0.25c0.861-0.5,1.734-0.977,2.63-1.409c0.009-0.005,0.019-0.011,0.029-0.015
	c0.78-0.377,1.577-0.717,2.382-1.04c0.209-0.085,0.418-0.167,0.629-0.248c0.793-0.302,1.594-0.587,2.406-0.838
	c0.03-0.008,0.057-0.018,0.085-0.027c0.828-0.253,1.671-0.468,2.52-0.667c0.221-0.051,0.44-0.1,0.662-0.148
	c0.864-0.186,1.735-0.354,2.619-0.481c0.829-0.119,1.642-0.201,2.448-0.266c0.184-0.015,0.368-0.029,0.55-0.042
	c0.788-0.052,1.567-0.083,2.331-0.083c0.1,0,0.196,0.006,0.294,0.006c0.696,0.006,1.38,0.035,2.056,0.084
	c0.159,0.012,0.317,0.021,0.475,0.035c0.731,0.064,1.452,0.15,2.159,0.263c0.134,0.021,0.264,0.048,0.398,0.071
	c0.636,0.11,1.261,0.24,1.878,0.39c0.111,0.027,0.227,0.05,0.338,0.078c0.68,0.175,1.345,0.375,1.999,0.596
	c0.122,0.042,0.243,0.084,0.364,0.127c0.658,0.233,1.303,0.484,1.931,0.765c0.066,0.028,0.128,0.062,0.191,0.09
	c0.659,0.3,1.307,0.619,1.935,0.97c-15.164-8.471-30.326-16.946-45.489-25.42c-0.326-0.181-0.655-0.356-0.988-0.525
	c-0.295-0.148-0.597-0.284-0.898-0.423c-0.085-0.04-0.169-0.081-0.255-0.12c-0.614-0.273-1.246-0.52-1.886-0.746
	c-0.139-0.05-0.278-0.099-0.419-0.146c-0.581-0.197-1.171-0.38-1.774-0.539c-0.055-0.014-0.111-0.025-0.167-0.039
	c-0.143-0.037-0.289-0.067-0.434-0.102c-0.583-0.14-1.176-0.262-1.778-0.368c-0.15-0.027-0.299-0.056-0.451-0.08
	c-0.698-0.111-1.409-0.197-2.13-0.26c-0.168-0.014-0.337-0.023-0.506-0.036c-0.662-0.047-1.332-0.076-2.011-0.083
	c-0.11-0.002-0.218-0.007-0.329-0.007c-0.757,0-1.53,0.03-2.31,0.082c-0.191,0.012-0.383,0.027-0.574,0.043
	c-0.802,0.063-1.611,0.145-2.437,0.264c-0.888,0.129-1.764,0.298-2.632,0.484c-0.211,0.045-0.421,0.092-0.631,0.141
	c-1.727,0.402-3.413,0.919-5.05,1.545c-0.197,0.075-0.392,0.151-0.588,0.231c-0.811,0.326-1.615,0.668-2.401,1.047
	c-0.002,0.001-0.004,0.002-0.007,0.004h0.001c-0.907,0.438-1.791,0.92-2.662,1.426c-0.139,0.082-0.279,0.16-0.417,0.242
	c-0.827,0.495-1.635,1.02-2.426,1.575c-0.068,0.048-0.144,0.088-0.211,0.137c-0.114,0.081-0.221,0.172-0.335,0.254
	c-0.479,0.348-0.951,0.707-1.417,1.077c-0.169,0.136-0.342,0.267-0.511,0.405c-0.611,0.503-1.212,1.02-1.8,1.561
	c-0.017,0.015-0.035,0.029-0.052,0.044c-0.09,0.084-0.176,0.175-0.265,0.26c-0.446,0.419-0.887,0.849-1.317,1.29
	c-0.175,0.18-0.346,0.364-0.517,0.546c-0.358,0.379-0.709,0.766-1.055,1.159c-0.099,0.113-0.204,0.217-0.302,0.332
	c-0.081,0.095-0.156,0.196-0.236,0.291c-0.349,0.412-0.689,0.833-1.024,1.262c-0.149,0.188-0.3,0.372-0.444,0.563
	c-0.469,0.617-0.928,1.247-1.37,1.894c-0.006,0.01-0.015,0.02-0.021,0.029c-0.034,0.049-0.064,0.104-0.099,0.155
	c-0.432,0.64-0.849,1.295-1.256,1.964c-0.13,0.213-0.256,0.431-0.384,0.647c-0.329,0.562-0.648,1.132-0.959,1.712
	c-0.074,0.139-0.157,0.272-0.231,0.412c-0.029,0.056-0.053,0.115-0.08,0.169c-0.478,0.921-0.927,1.866-1.354,2.83
	c-0.088,0.2-0.175,0.403-0.261,0.605c-0.424,0.988-0.827,1.994-1.195,3.026c-0.012,0.028-0.024,0.056-0.034,0.083
	c-0.073,0.205-0.136,0.416-0.206,0.623c-0.172,0.503-0.344,1.007-0.503,1.52c-0.091,0.291-0.174,0.588-0.261,0.882
	c-0.139,0.477-0.278,0.956-0.407,1.44c-0.083,0.314-0.16,0.631-0.239,0.947c-0.117,0.476-0.232,0.955-0.339,1.438
	c-0.072,0.328-0.14,0.656-0.207,0.987c-0.099,0.486-0.194,0.975-0.282,1.469c-0.058,0.332-0.116,0.665-0.171,1
	c-0.081,0.505-0.153,1.015-0.224,1.527c-0.044,0.331-0.091,0.661-0.13,0.995c-0.064,0.536-0.118,1.079-0.17,1.621
	c-0.029,0.317-0.064,0.63-0.089,0.949c-0.048,0.6-0.083,1.208-0.114,1.816c-0.014,0.27-0.035,0.535-0.045,0.805
	c-0.037,0.882-0.058,1.77-0.06,2.668c-0.031,16.881,6.249,29.273,16.469,34.987l45.487,25.422
	c-10.218-5.717-16.499-18.108-16.47-34.989c0.002-0.896,0.024-1.781,0.059-2.662C88.024,79.825,88.046,79.54,88.061,79.253z"/>
<linearGradient id="SVGID_21_" gradientUnits="userSpaceOnUse" x1="42.0034" y1="98.562" x2="122.1465" y2="98.562">
	<stop  offset="0" style="stop-color:#262424"/>
	<stop  offset="1" style="stop-color:#58595B"/>
</linearGradient>
<path fill="url(#SVGID_21_)" d="M109.631,113.225c0.243-0.06,0.487-0.118,0.729-0.179c0.567-0.146,1.129-0.303,1.687-0.469
	c0.147-0.043,0.297-0.083,0.442-0.126c0.624-0.192,1.237-0.395,1.841-0.608c0.223-0.08,0.439-0.16,0.659-0.243
	c0.449-0.165,0.891-0.333,1.325-0.509c0.199-0.083,0.398-0.161,0.594-0.244c0.596-0.253,1.18-0.512,1.74-0.777
	c0.007-0.006,0.015-0.009,0.022-0.012c0.022-0.011,0.044-0.018,0.064-0.029c0.328-0.16,0.63-0.329,0.943-0.492
	c0.88-0.46,1.722-0.932,2.469-1.426l-45.49-25.419c-0.753,0.493-1.603,0.969-2.492,1.437c-0.326,0.168-0.638,0.343-0.979,0.508
	c-0.019,0.009-0.039,0.017-0.058,0.026c-0.548,0.262-1.119,0.515-1.702,0.762c-0.202,0.084-0.408,0.167-0.616,0.25
	c-0.425,0.174-0.857,0.34-1.296,0.501c-0.228,0.083-0.453,0.169-0.683,0.25c-0.588,0.206-1.185,0.404-1.792,0.591
	c-0.169,0.053-0.341,0.102-0.512,0.15c-0.545,0.16-1.096,0.314-1.652,0.459c-0.245,0.062-0.492,0.12-0.739,0.18
	c-0.476,0.116-0.953,0.223-1.433,0.323c-0.231,0.047-0.461,0.097-0.693,0.142c-0.697,0.134-1.398,0.262-2.096,0.361
	c-1.061,0.154-2.089,0.247-3.101,0.314c-0.319,0.021-0.63,0.029-0.943,0.041c-0.727,0.03-1.44,0.037-2.14,0.019
	c-0.291-0.006-0.583-0.009-0.87-0.023c-1.904-0.101-3.702-0.364-5.39-0.793c-0.271-0.069-0.536-0.15-0.801-0.226
	c-0.463-0.134-0.919-0.279-1.365-0.437c-0.28-0.101-0.554-0.208-0.827-0.319c-0.412-0.164-0.816-0.343-1.212-0.532
	c-0.425-0.201-0.856-0.399-1.262-0.628c15.163,8.474,30.327,16.948,45.488,25.422c0.256,0.142,0.518,0.287,0.783,0.418
	c0.156,0.078,0.325,0.139,0.484,0.212c0.393,0.189,0.795,0.364,1.205,0.529c0.273,0.11,0.549,0.218,0.831,0.318
	c0.443,0.16,0.899,0.303,1.361,0.436c0.185,0.053,0.358,0.124,0.545,0.175c0.083,0.021,0.174,0.032,0.258,0.053
	c0.849,0.215,1.72,0.402,2.625,0.536c0.004,0,0.009,0,0.012,0.002c0.887,0.127,1.807,0.204,2.746,0.251
	c0.292,0.015,0.591,0.02,0.886,0.026c0.693,0.016,1.402,0.009,2.124-0.017c0.315-0.014,0.629-0.025,0.952-0.042
	c1.009-0.065,2.037-0.164,3.097-0.314c0.7-0.102,1.399-0.227,2.098-0.361c0.231-0.044,0.46-0.094,0.691-0.142
	C108.673,113.447,109.151,113.338,109.631,113.225z"/>
<linearGradient id="SVGID_22_" gradientUnits="userSpaceOnUse" x1="8.5298" y1="25.4849" x2="122.0728" y2="25.4849">
	<stop  offset="0" style="stop-color:#262424"/>
	<stop  offset="1" style="stop-color:#58595B"/>
</linearGradient>
<polygon fill="url(#SVGID_22_)" points="105.655,35.459 122.073,33.141 76.586,7.721 60.168,10.038 8.53,17.829 54.018,43.249 "/>
<linearGradient id="SVGID_23_" gradientUnits="userSpaceOnUse" x1="8.3706" y1="74.1724" x2="54.0176" y2="74.1724">
	<stop  offset="0" style="stop-color:#262424"/>
	<stop  offset="1" style="stop-color:#58595B"/>
</linearGradient>
<polygon fill="url(#SVGID_23_)" points="53.86,130.515 8.371,105.095 8.53,17.829 54.018,43.249 "/>
<linearGradient id="SVGID_24_" gradientUnits="userSpaceOnUse" x1="10.2651" y1="105.9146" x2="90.189" y2="105.9146">
	<stop  offset="0" style="stop-color:#929496"/>
	<stop  offset="1" style="stop-color:#E6E6E7"/>
</linearGradient>
<polygon fill="url(#SVGID_24_)" points="55.752,121.111 10.265,95.69 44.698,90.717 90.189,116.142 "/>
<linearGradient id="SVGID_25_" gradientUnits="userSpaceOnUse" x1="10.3398" y1="64.9946" x2="86.7144" y2="64.9946">
	<stop  offset="0" style="stop-color:#929496"/>
	<stop  offset="1" style="stop-color:#E6E6E7"/>
</linearGradient>
<polygon fill="url(#SVGID_25_)" points="55.827,79.936 10.34,54.512 41.226,50.054 86.714,75.475 "/>
<linearGradient id="SVGID_26_" gradientUnits="userSpaceOnUse" x1="87.9536" y1="76.7783" x2="160.5825" y2="76.7783">
	<stop  offset="0" style="stop-color:#A6A8AA"/>
	<stop  offset="1" style="stop-color:#E6E6E7"/>
</linearGradient>
<path fill="url(#SVGID_26_)" d="M124.948,32.687c21.679-3.128,35.682,12.678,35.634,37.971
	c-0.05,29.337-16.705,47.301-36.977,50.225c-20.989,3.032-35.698-12.3-35.652-38.108C88.005,55.724,103.717,35.754,124.948,32.687z
	 M124.215,111.81c16.257-2.347,25.495-19.733,25.53-39.075c0.031-16.961-8.202-33.459-25.293-30.99
	c-12.038,1.737-25.49,16.465-25.53,39.2C98.89,99.144,108.053,114.148,124.215,111.81"/>
<linearGradient id="SVGID_27_" gradientUnits="userSpaceOnUse" x1="53.8599" y1="81.8276" x2="122.314" y2="81.8276">
	<stop  offset="0" style="stop-color:#262424"/>
	<stop  offset="0.0481" style="stop-color:#3D2425"/>
	<stop  offset="0.1392" style="stop-color:#632325"/>
	<stop  offset="0.2374" style="stop-color:#842226"/>
	<stop  offset="0.3428" style="stop-color:#9E2227"/>
	<stop  offset="0.4578" style="stop-color:#B32127"/>
	<stop  offset="0.5875" style="stop-color:#C12128"/>
	<stop  offset="0.7439" style="stop-color:#C92128"/>
	<stop  offset="1" style="stop-color:#CC2128"/>
</linearGradient>
<path fill="url(#SVGID_27_)" d="M105.655,35.459l16.417-2.318l-0.054,12.696c-3.881-1.426-9.426-2.146-16.013-1.197
	C87.367,47.33,74.97,61.861,74.928,84.229c-0.037,20.831,11.147,32.614,30.472,29.822c6.252-0.902,12.618-3.221,16.747-5.941
	l0.167,12.838l-19.039,2.641l-49.416,6.926l0.158-87.267L105.655,35.459z"/>
<linearGradient id="SVGID_28_" gradientUnits="userSpaceOnUse" x1="111.187" y1="70.1724" x2="170.4395" y2="70.1724">
	<stop  offset="0" style="stop-color:#4674B8"/>
	<stop  offset="1" style="stop-color:#00ACEC"/>
</linearGradient>
<path fill="url(#SVGID_28_)" d="M170.439,25.42l-0.161,88.005l-10.375,1.5l-48.717-80.45l11.189-1.615l24.993,40.408
	c5.881,9.463,10.453,18.072,14.207,26.543l0.242-0.175c-0.923-11.593-1.145-22.287-1.118-36.007l0.066-36.81L170.439,25.42z"/>
<polygon fill="#FFFFFF" points="88.557,37.836 88.539,47.389 55.879,52.107 55.827,79.936 86.714,75.475 86.697,84.887 
	55.81,89.349 55.752,121.111 90.189,116.142 90.17,125.694 45.487,132.144 45.648,44.031 "/>
<linearGradient id="SVGID_29_" gradientUnits="userSpaceOnUse" x1="0" y1="75.3765" x2="45.6479" y2="75.3765">
	<stop  offset="0" style="stop-color:#000000"/>
	<stop  offset="1" style="stop-color:#808183"/>
</linearGradient>
<polygon fill="url(#SVGID_29_)" points="45.487,132.144 0,106.725 0.159,18.609 45.648,44.031 "/>
<linearGradient id="SVGID_30_" gradientUnits="userSpaceOnUse" x1="0.1587" y1="28.2231" x2="88.5566" y2="28.2231">
	<stop  offset="0" style="stop-color:#929496"/>
	<stop  offset="1" style="stop-color:#E6E6E7"/>
</linearGradient>
<polygon fill="url(#SVGID_30_)" points="45.648,44.031 0.159,18.609 43.067,12.415 88.557,37.836 "/>
<linearGradient id="SVGID_31_" gradientUnits="userSpaceOnUse" x1="65.6929" y1="21.1821" x2="122.4146" y2="21.1821">
	<stop  offset="0" style="stop-color:#323B8C"/>
	<stop  offset="1" style="stop-color:#4674B8"/>
</linearGradient>
<polygon fill="url(#SVGID_31_)" points="111.182,34.643 65.693,9.219 76.924,7.721 122.415,33.141 "/>
</svg>
